<svg xmlns="http://www.w3.org/2000/svg" shape-rendering="geometricPrecision" text-rendering="geometricPrecision" image-rendering="optimizeQuality" fill-rule="evenodd" clip-rule="evenodd" viewBox="0 0 419 511.4"><path d="M271.61 256.47c-5.61 7.02-12.17 13.19-19.6 18.25l-5.82 23.61h-71.93L170 280.92c-10.06-5.12-18.75-12.37-25.66-21.3-14.56 1.71-29.17 2.63-43.74 4.39l.68 34.32H36.32c4.95-8.96 11.69-16.61 21.21-22.19 9.83-5.75 22.68-10.6 36.93-14.63 4.46-1.26 9.06-2.44 13.75-3.55-29.15.19-59.04-6.92-63.75-20.19 36.74-2.98 50.25-36.15 54.77-75.74 6.91-60.59-2.67-125.04 70.26-154.51 57.91-23.42 132.8 8.1 140.97 91.54-.34 56.69 15.6 134.59 66.34 138.71-5.16 14.54-41.05 21.34-73.46 19.22 20.47 5.47 40.63 11.68 55.24 19.35 9.89 5.2 17.22 12.83 22.76 21.99h-65.87l1.23-33.28c-15.21-2.29-30.06-5.41-45.09-8.58zM16.5 308.7h386c9.82 0 17.8 9.2 16.32 20.44l-21.34 161.83c-1.46 11.14-9.19 20.43-20.43 20.43H41.95c-11.24 0-18.97-9.29-20.43-20.43L.18 329.14C-1.3 317.9 6.68 308.7 16.5 308.7zm191.14 76.25c13.53 0 24.5 10.97 24.5 24.51 0 13.53-10.97 24.5-24.5 24.5-13.54 0-24.51-10.97-24.51-24.5 0-13.54 10.97-24.51 24.51-24.51zm-57.77-133.52c6.09 8.04 13.64 14.31 21.95 18.83 12.41 6.75 26.55 9.67 40.23 8.93 13.65-.74 26.83-5.12 37.33-12.97 6.23-4.66 11.52-10.55 15.41-17.61-8.19-3.8-13.86-8.87-15.32-15.27-13.77 10.59-29.1 17.03-44.59 17.03-13.42 0-26.32-4.79-38.02-12.9-2.13 6.01-8.38 10.63-16.99 13.96zm80.1-189.81c-34.06 34.5-70 48.01-107.93 57.57-.56 4.52-.36 1.38-.36 6.09 0 52.13 39.32 114.72 83.2 114.72s88.27-62.59 88.27-114.72c0-10.15-1.2-14.17-3.69-23.34-33.14-.38-46.04-17.03-59.49-40.32z"/></svg>